<svg width="328" height="93" viewBox="0 0 328 93" fill="none" xmlns="http://www.w3.org/2000/svg">
<g filter="url(#filter0_i_824_556)">
<path d="M46.432 92.896C37.984 92.896 30.2187 90.9333 23.136 87.008C16.0533 82.9973 10.4213 77.4933 6.24 70.496C2.144 63.4133 0.0960002 55.4347 0.0960002 46.56C0.0960002 37.6853 2.144 29.7493 6.24 22.752C10.4213 15.6693 16.0533 10.1653 23.136 6.24C30.2187 2.31466 37.984 0.351997 46.432 0.351997C54.9653 0.351997 62.7307 2.31466 69.728 6.24C76.8107 10.1653 82.4 15.6693 86.496 22.752C90.592 29.7493 92.64 37.6853 92.64 46.56C92.64 55.4347 90.592 63.4133 86.496 70.496C82.4 77.4933 76.8107 82.9973 69.728 87.008C62.6453 90.9333 54.88 92.896 46.432 92.896ZM46.432 69.6C52.832 69.6 57.8667 67.5093 61.536 63.328C65.2907 59.1467 67.168 53.5573 67.168 46.56C67.168 39.392 65.2907 33.76 61.536 29.664C57.8667 25.4827 52.832 23.392 46.432 23.392C39.9467 23.392 34.8693 25.4827 31.2 29.664C27.5307 33.76 25.696 39.392 25.696 46.56C25.696 53.6427 27.5307 59.2747 31.2 63.456C34.8693 67.552 39.9467 69.6 46.432 69.6ZM214.881 21.856V36.576H243.681V55.648H214.881V71.904H247.521V92H189.793V1.75999H247.521V21.856H214.881Z" fill="#6200EA"/>
<path d="M161.518 45.664C166.809 46.8587 170.99 49.504 174.062 53.6C177.219 57.6107 178.798 62.2187 178.798 67.424C178.798 75.104 176.153 81.12 170.862 85.472C165.571 89.824 158.147 92 148.59 92H103.918V1.75999H147.182C156.398 1.75999 163.609 3.808 168.814 7.904C174.105 12 176.75 17.76 176.75 25.184C176.75 30.4747 175.342 34.912 172.526 38.496C169.795 41.9947 166.126 44.384 161.518 45.664ZM129.006 37.6H141.678C147.993 37.6 151.15 34.9973 151.15 29.792C151.15 24.416 147.993 21.728 141.678 21.728H129.006V37.6ZM143.598 71.776C149.913 71.776 153.07 69.1307 153.07 63.84C153.07 61.1093 152.217 59.0187 150.51 57.568C148.889 56.1173 146.542 55.392 143.47 55.392H129.006V71.776H143.598ZM293.966 92.896C283.47 92.896 274.851 90.4213 268.11 85.472C261.369 80.4373 257.742 73.2693 257.23 63.968H283.982C284.238 67.1253 285.177 69.4293 286.798 70.88C288.419 72.3307 290.51 73.056 293.07 73.056C295.374 73.056 297.251 72.5013 298.702 71.392C300.238 70.1973 301.006 68.576 301.006 66.528C301.006 63.8827 299.769 61.8347 297.294 60.384C294.819 58.9333 290.809 57.312 285.262 55.52C279.374 53.5573 274.595 51.68 270.926 49.888C267.342 48.0107 264.185 45.3227 261.454 41.824C258.809 38.24 257.486 33.5893 257.486 27.872C257.486 22.0693 258.937 17.12 261.838 13.024C264.739 8.84266 268.75 5.68533 273.87 3.55199C278.99 1.41866 284.793 0.351997 291.278 0.351997C301.774 0.351997 310.137 2.82666 316.366 7.77599C322.681 12.64 326.051 19.5093 326.478 28.384H299.214C299.129 25.6533 298.275 23.6053 296.654 22.24C295.118 20.8747 293.113 20.192 290.638 20.192C288.761 20.192 287.225 20.7467 286.03 21.856C284.835 22.9653 284.238 24.544 284.238 26.592C284.238 28.2987 284.878 29.792 286.158 31.072C287.523 32.2667 289.187 33.3333 291.15 34.272C293.113 35.1253 296.014 36.2347 299.854 37.6C305.571 39.5627 310.265 41.5253 313.934 43.488C317.689 45.3653 320.889 48.0533 323.534 51.552C326.265 54.9653 327.63 59.3173 327.63 64.608C327.63 69.984 326.265 74.8053 323.534 79.072C320.889 83.3387 317.006 86.7093 311.886 89.184C306.851 91.6587 300.878 92.896 293.966 92.896Z" fill="#432876"/>
</g>
<defs>
<filter id="filter0_i_824_556" x="0.0959473" y="0.352051" width="327.534" height="96.5439" filterUnits="userSpaceOnUse" color-interpolation-filters="sRGB">
<feFlood flood-opacity="0" result="BackgroundImageFix"/>
<feBlend mode="normal" in="SourceGraphic" in2="BackgroundImageFix" result="shape"/>
<feColorMatrix in="SourceAlpha" type="matrix" values="0 0 0 0 0 0 0 0 0 0 0 0 0 0 0 0 0 0 127 0" result="hardAlpha"/>
<feOffset dy="4"/>
<feGaussianBlur stdDeviation="2"/>
<feComposite in2="hardAlpha" operator="arithmetic" k2="-1" k3="1"/>
<feColorMatrix type="matrix" values="0 0 0 0 0 0 0 0 0 0 0 0 0 0 0 0 0 0 0.25 0"/>
<feBlend mode="normal" in2="shape" result="effect1_innerShadow_824_556"/>
</filter>
</defs>
</svg>
